{
  "accessors": [
    {
      "bufferView": 2,
      "componentType": 5126,
      "count": 65532,
      "max": [
        20144.705078125,
        17096.787109375,
        1957.53466796875
      ],
      "min": [
        -19435.572265625,
        -20915.341796875,
        -2708.71875
      ],
      "type": "VEC3"
    },
    {
      "bufferView": 2,
      "byteOffset": 786384,
      "componentType": 5126,
      "count": 65532,
      "max": [
        0.9872385859489441,
        1.0,
        1.0
      ],
      "min": [
        -1.0,
        -1.0,
        -1.0
      ],
      "type": "VEC3"
    },
    {
      "bufferView": 1,
      "componentType": 5126,
      "count": 65532,
      "max": [
        0.9598342180252075,
        0.9999903440475464
      ],
      "min": [
        0.02734103426337242,
        0.11147475242614746
      ],
      "type": "VEC2"
    },
    {
      "bufferView": 1,
      "byteOffset": 524256,
      "componentType": 5126,
      "count": 65532,
      "max": [
        0.9598342180252075,
        0.9999903440475464
      ],
      "min": [
        0.02734103426337242,
        0.11147475242614746
      ],
      "type": "VEC2"
    },
    {
      "bufferView": 1,
      "byteOffset": 1048512,
      "componentType": 5126,
      "count": 65532,
      "max": [
        0.9598342180252075,
        0.9999903440475464
      ],
      "min": [
        0.02734103426337242,
        0.11147475242614746
      ],
      "type": "VEC2"
    },
    {
      "bufferView": 0,
      "componentType": 5125,
      "count": 307662,
      "type": "SCALAR"
    },
    {
      "bufferView": 2,
      "byteOffset": 1572768,
      "componentType": 5126,
      "count": 65532,
      "max": [
        17908.7421875,
        16429.203125,
        479.3125
      ],
      "min": [
        -404.375,
        -6687.94140625,
        -2464.5625
      ],
      "type": "VEC3"
    },
    {
      "bufferView": 2,
      "byteOffset": 2359152,
      "componentType": 5126,
      "count": 65532,
      "max": [
        0.9983826875686646,
        0.9815945625305176,
        0.877924919128418
      ],
      "min": [
        -0.9853987693786621,
        -0.9920827150344849,
        -0.9999945163726807
      ],
      "type": "VEC3"
    },
    {
      "bufferView": 1,
      "byteOffset": 1572768,
      "componentType": 5126,
      "count": 65532,
      "max": [
        0.9435081481933594,
        0.9824376106262207
      ],
      "min": [
        0.4808252453804016,
        0.3742859363555908
      ],
      "type": "VEC2"
    },
    {
      "bufferView": 1,
      "byteOffset": 2097024,
      "componentType": 5126,
      "count": 65532,
      "max": [
        0.9435081481933594,
        0.9824376106262207
      ],
      "min": [
        0.4808252453804016,
        0.3742859363555908
      ],
      "type": "VEC2"
    },
    {
      "bufferView": 1,
      "byteOffset": 2621280,
      "componentType": 5126,
      "count": 65532,
      "max": [
        0.9435081481933594,
        0.9824376106262207
      ],
      "min": [
        0.4808252453804016,
        0.3742859363555908
      ],
      "type": "VEC2"
    },
    {
      "bufferView": 0,
      "byteOffset": 1230648,
      "componentType": 5125,
      "count": 333108,
      "type": "SCALAR"
    },
    {
      "bufferView": 2,
      "byteOffset": 3145536,
      "componentType": 5126,
      "count": 65532,
      "max": [
        16452.765625,
        17096.421875,
        586.602783203125
      ],
      "min": [
        -5248.9375,
        -6716.947265625,
        -2361.46875
      ],
      "type": "VEC3"
    },
    {
      "bufferView": 2,
      "byteOffset": 3931920,
      "componentType": 5126,
      "count": 65532,
      "max": [
        0.982300341129303,
        0.999374270439148,
        0.902702808380127
      ],
      "min": [
        -0.988106369972229,
        -0.9944632649421692,
        -0.9999990463256836
      ],
      "type": "VEC3"
    },
    {
      "bufferView": 1,
      "byteOffset": 3145536,
      "componentType": 5126,
      "count": 65532,
      "max": [
        0.9067227244377136,
        0.9999903440475464
      ],
      "min": [
        0.3584268391132355,
        0.3735228180885315
      ],
      "type": "VEC2"
    },
    {
      "bufferView": 1,
      "byteOffset": 3669792,
      "componentType": 5126,
      "count": 65532,
      "max": [
        0.9067227244377136,
        0.9999903440475464
      ],
      "min": [
        0.3584268391132355,
        0.3735228180885315
      ],
      "type": "VEC2"
    },
    {
      "bufferView": 1,
      "byteOffset": 4194048,
      "componentType": 5126,
      "count": 65532,
      "max": [
        0.9067227244377136,
        0.9999903440475464
      ],
      "min": [
        0.3584268391132355,
        0.3735228180885315
      ],
      "type": "VEC2"
    },
    {
      "bufferView": 0,
      "byteOffset": 2563080,
      "componentType": 5125,
      "count": 318651,
      "type": "SCALAR"
    },
    {
      "bufferView": 2,
      "byteOffset": 4718304,
      "componentType": 5126,
      "count": 65532,
      "max": [
        20144.20703125,
        15991.8125,
        442.6875
      ],
      "min": [
        -3678.44921875,
        -4026.53125,
        -2598.8125
      ],
      "type": "VEC3"
    },
    {
      "bufferView": 2,
      "byteOffset": 5504688,
      "componentType": 5126,
      "count": 65532,
      "max": [
        0.994361400604248,
        0.9912477135658264,
        0.9883995652198792
      ],
      "min": [
        -0.9928651452064514,
        -0.9944632649421692,
        -0.9999927282333374
      ],
      "type": "VEC3"
    },
    {
      "bufferView": 1,
      "byteOffset": 4718304,
      "componentType": 5126,
      "count": 65532,
      "max": [
        0.9999873638153076,
        0.9709310531616211
      ],
      "min": [
        0.3981054425239563,
        0.44430065155029297
      ],
      "type": "VEC2"
    },
    {
      "bufferView": 1,
      "byteOffset": 5242560,
      "componentType": 5126,
      "count": 65532,
      "max": [
        0.9999873638153076,
        0.9709310531616211
      ],
      "min": [
        0.3981054425239563,
        0.44430065155029297
      ],
      "type": "VEC2"
    },
    {
      "bufferView": 1,
      "byteOffset": 5766816,
      "componentType": 5126,
      "count": 65532,
      "max": [
        0.9999873638153076,
        0.9709310531616211
      ],
      "min": [
        0.3981054425239563,
        0.44430065155029297
      ],
      "type": "VEC2"
    },
    {
      "bufferView": 0,
      "byteOffset": 3837684,
      "componentType": 5125,
      "count": 319401,
      "type": "SCALAR"
    },
    {
      "bufferView": 2,
      "byteOffset": 6291072,
      "componentType": 5126,
      "count": 65532,
      "max": [
        18430.859375,
        17096.421875,
        586.602783203125
      ],
      "min": [
        -14874.6640625,
        -12115.109375,
        -2813.625
      ],
      "type": "VEC3"
    },
    {
      "bufferView": 2,
      "byteOffset": 7077456,
      "componentType": 5126,
      "count": 65532,
      "max": [
        0.9939315915107727,
        0.9937372207641602,
        0.8697924017906189
      ],
      "min": [
        -0.9941225051879883,
        -0.9762204885482788,
        -0.9999998807907104
      ],
      "type": "VEC3"
    },
    {
      "bufferView": 1,
      "byteOffset": 6291072,
      "componentType": 5126,
      "count": 65532,
      "max": [
        0.9566994905471802,
        0.9999903440475464
      ],
      "min": [
        0.11523184925317764,
        0.23151123523712158
      ],
      "type": "VEC2"
    },
    {
      "bufferView": 1,
      "byteOffset": 6815328,
      "componentType": 5126,
      "count": 65532,
      "max": [
        0.9566994905471802,
        0.9999903440475464
      ],
      "min": [
        0.11523184925317764,
        0.23151123523712158
      ],
      "type": "VEC2"
    },
    {
      "bufferView": 1,
      "byteOffset": 7339584,
      "componentType": 5126,
      "count": 65532,
      "max": [
        0.9566994905471802,
        0.9999903440475464
      ],
      "min": [
        0.11523184925317764,
        0.23151123523712158
      ],
      "type": "VEC2"
    },
    {
      "bufferView": 0,
      "byteOffset": 5115288,
      "componentType": 5125,
      "count": 257856,
      "type": "SCALAR"
    },
    {
      "bufferView": 2,
      "byteOffset": 7863840,
      "componentType": 5126,
      "count": 65532,
      "max": [
        3368.93310546875,
        -19.09375,
        661.110595703125
      ],
      "min": [
        -17671.611328125,
        -20721.42578125,
        -3326.65625
      ],
      "type": "VEC3"
    },
    {
      "bufferView": 2,
      "byteOffset": 8650224,
      "componentType": 5126,
      "count": 65532,
      "max": [
        0.9992973804473877,
        0.9985034465789795,
        0.6998400092124939
      ],
      "min": [
        -0.9942028522491455,
        -0.9989804625511169,
        -0.9999954700469971
      ],
      "type": "VEC3"
    },
    {
      "bufferView": 1,
      "byteOffset": 7863840,
      "componentType": 5126,
      "count": 65532,
      "max": [
        0.5761582851409912,
        0.5497258901596069
      ],
      "min": [
        0.04456671327352524,
        0.005101501941680908
      ],
      "type": "VEC2"
    },
    {
      "bufferView": 1,
      "byteOffset": 8388096,
      "componentType": 5126,
      "count": 65532,
      "max": [
        0.5761582851409912,
        0.5497258901596069
      ],
      "min": [
        0.04456671327352524,
        0.005101501941680908
      ],
      "type": "VEC2"
    },
    {
      "bufferView": 1,
      "byteOffset": 8912352,
      "componentType": 5126,
      "count": 65532,
      "max": [
        0.5761582851409912,
        0.5497258901596069
      ],
      "min": [
        0.04456671327352524,
        0.005101501941680908
      ],
      "type": "VEC2"
    },
    {
      "bufferView": 0,
      "byteOffset": 6146712,
      "componentType": 5125,
      "count": 326949,
      "type": "SCALAR"
    },
    {
      "bufferView": 2,
      "byteOffset": 9436608,
      "componentType": 5126,
      "count": 65532,
      "max": [
        4527.6796875,
        5806.9638671875,
        827.96875
      ],
      "min": [
        -18401.15234375,
        -18535.03125,
        -3287.75
      ],
      "type": "VEC3"
    },
    {
      "bufferView": 2,
      "byteOffset": 10222992,
      "componentType": 5126,
      "count": 65532,
      "max": [
        0.9956546425819397,
        0.9889983534812927,
        0.5838938355445862
      ],
      "min": [
        -0.9820935130119324,
        -0.9933246374130249,
        -0.9999901056289673
      ],
      "type": "VEC3"
    },
    {
      "bufferView": 1,
      "byteOffset": 9436608,
      "componentType": 5126,
      "count": 65532,
      "max": [
        0.6054341793060303,
        0.7029942274093628
      ],
      "min": [
        0.02613474614918232,
        0.06261992454528809
      ],
      "type": "VEC2"
    },
    {
      "bufferView": 1,
      "byteOffset": 9960864,
      "componentType": 5126,
      "count": 65532,
      "max": [
        0.6054341793060303,
        0.7029942274093628
      ],
      "min": [
        0.02613474614918232,
        0.06261992454528809
      ],
      "type": "VEC2"
    },
    {
      "bufferView": 1,
      "byteOffset": 10485120,
      "componentType": 5126,
      "count": 65532,
      "max": [
        0.6054341793060303,
        0.7029942274093628
      ],
      "min": [
        0.02613474614918232,
        0.06261992454528809
      ],
      "type": "VEC2"
    },
    {
      "bufferView": 0,
      "byteOffset": 7454508,
      "componentType": 5125,
      "count": 331410,
      "type": "SCALAR"
    },
    {
      "bufferView": 2,
      "byteOffset": 11009376,
      "componentType": 5126,
      "count": 65532,
      "max": [
        4971.18212890625,
        6657.6875,
        869.8125
      ],
      "min": [
        -19435.49609375,
        -20311.609375,
        -2919.65625
      ],
      "type": "VEC3"
    },
    {
      "bufferView": 2,
      "byteOffset": 11795760,
      "componentType": 5126,
      "count": 65532,
      "max": [
        0.94334477186203,
        0.9993185997009277,
        0.3946751356124878
      ],
      "min": [
        -0.9930615425109863,
        -0.996130108833313,
        -0.9999995231628418
      ],
      "type": "VEC3"
    },
    {
      "bufferView": 1,
      "byteOffset": 11009376,
      "componentType": 5126,
      "count": 65532,
      "max": [
        0.616639256477356,
        0.7253744602203369
      ],
      "min": [
        1.9168624021403957e-06,
        0.015882790088653564
      ],
      "type": "VEC2"
    },
    {
      "bufferView": 1,
      "byteOffset": 11533632,
      "componentType": 5126,
      "count": 65532,
      "max": [
        0.616639256477356,
        0.7253744602203369
      ],
      "min": [
        1.9168624021403957e-06,
        0.015882790088653564
      ],
      "type": "VEC2"
    },
    {
      "bufferView": 1,
      "byteOffset": 12057888,
      "componentType": 5126,
      "count": 65532,
      "max": [
        0.616639256477356,
        0.7253744602203369
      ],
      "min": [
        1.9168624021403957e-06,
        0.015882790088653564
      ],
      "type": "VEC2"
    },
    {
      "bufferView": 0,
      "byteOffset": 8780148,
      "componentType": 5125,
      "count": 314991,
      "type": "SCALAR"
    },
    {
      "bufferView": 2,
      "byteOffset": 12582144,
      "componentType": 5126,
      "count": 65533,
      "max": [
        5136.5087890625,
        5180.953125,
        825.75
      ],
      "min": [
        -19435.49609375,
        -20913.283203125,
        -3326.65625
      ],
      "type": "VEC3"
    },
    {
      "bufferView": 2,
      "byteOffset": 13368540,
      "componentType": 5126,
      "count": 65533,
      "max": [
        0.9939315915107727,
        0.9993185997009277,
        0.8345522284507751
      ],
      "min": [
        -0.9827873706817627,
        -0.9606739282608032,
        -0.9999998807907104
      ],
      "type": "VEC3"
    },
    {
      "bufferView": 1,
      "byteOffset": 12582144,
      "componentType": 5126,
      "count": 65533,
      "max": [
        0.6208163499832153,
        0.6865255832672119
      ],
      "min": [
        1.9168624021403957e-06,
        5.435943603515625e-05
      ],
      "type": "VEC2"
    },
    {
      "bufferView": 1,
      "byteOffset": 13106408,
      "componentType": 5126,
      "count": 65533,
      "max": [
        0.6208163499832153,
        0.6865255832672119
      ],
      "min": [
        1.9168624021403957e-06,
        5.435943603515625e-05
      ],
      "type": "VEC2"
    },
    {
      "bufferView": 1,
      "byteOffset": 13630672,
      "componentType": 5126,
      "count": 65533,
      "max": [
        0.6208163499832153,
        0.6865255832672119
      ],
      "min": [
        1.9168624021403957e-06,
        5.435943603515625e-05
      ],
      "type": "VEC2"
    },
    {
      "bufferView": 0,
      "byteOffset": 10040112,
      "componentType": 5125,
      "count": 273006,
      "type": "SCALAR"
    },
    {
      "bufferView": 2,
      "byteOffset": 14154936,
      "componentType": 5126,
      "count": 31262,
      "max": [
        19627.591796875,
        10708.203125,
        861.125
      ],
      "min": [
        -18540.48828125,
        -19174.376953125,
        -3319.09375
      ],
      "type": "VEC3"
    },
    {
      "bufferView": 2,
      "byteOffset": 14530080,
      "componentType": 5126,
      "count": 31262,
      "max": [
        0.9822344183921814,
        0.9991979598999023,
        0.6652330756187439
      ],
      "min": [
        -0.9930615425109863,
        -0.9690808057785034,
        -0.9999849796295166
      ],
      "type": "VEC3"
    },
    {
      "bufferView": 1,
      "byteOffset": 14154936,
      "componentType": 5126,
      "count": 31262,
      "max": [
        0.9869349598884583,
        0.8319330215454102
      ],
      "min": [
        0.022614415735006332,
        0.04580050706863403
      ],
      "type": "VEC2"
    },
    {
      "bufferView": 1,
      "byteOffset": 14405032,
      "componentType": 5126,
      "count": 31262,
      "max": [
        0.9869349598884583,
        0.8319330215454102
      ],
      "min": [
        0.022614415735006332,
        0.04580050706863403
      ],
      "type": "VEC2"
    },
    {
      "bufferView": 1,
      "byteOffset": 14655128,
      "componentType": 5126,
      "count": 31262,
      "max": [
        0.9869349598884583,
        0.8319330215454102
      ],
      "min": [
        0.022614415735006332,
        0.04580050706863403
      ],
      "type": "VEC2"
    },
    {
      "bufferView": 0,
      "byteOffset": 11132136,
      "componentType": 5125,
      "count": 100440,
      "type": "SCALAR"
    }
  ],
  "asset": {
    "extras": {
      "author": "Spaceport3D (https://sketchfab.com/Spaceport3D)",
      "license": "CC-BY-4.0 (http://creativecommons.org/licenses/by/4.0/)",
      "source": "https://sketchfab.com/3d-models/mont-blanc-massif-photographed-from-iss-c66a5a559d3844eaac942939211a4b8d",
      "title": "Mont Blanc massif photographed from ISS"
    },
    "generator": "Sketchfab-12.68.0",
    "version": "2.0"
  },
  "bufferViews": [
    {
      "buffer": 0,
      "byteLength": 11533896,
      "name": "floatBufferViews",
      "target": 34963
    },
    {
      "buffer": 0,
      "byteLength": 14905224,
      "byteOffset": 11533896,
      "byteStride": 8,
      "name": "floatBufferViews",
      "target": 34962
    },
    {
      "buffer": 0,
      "byteLength": 14905224,
      "byteOffset": 26439120,
      "byteStride": 12,
      "name": "floatBufferViews",
      "target": 34962
    }
  ],
  "buffers": [
    {
      "byteLength": 41344344,
      "uri": "scene.bin"
    }
  ],
  "images": [
    {
      "uri": "textures/MontBlanc_VandeHei_1M_u0_v0.001_baseColor.jpeg"
    },
    {
      "uri": "textures/MontBlanc_VandeHei_1M_u0_v0.001_metallicRoughness.png"
    }
  ],
  "materials": [
    {
      "doubleSided": true,
      "name": "MontBlanc_VandeHei_1M_u0_v0.001",
      "pbrMetallicRoughness": {
        "baseColorTexture": {
          "index": 0
        },
        "metallicFactor": 0.0,
        "metallicRoughnessTexture": {
          "index": 1,
          "texCoord": 1
        }
      }
    }
  ],
  "meshes": [
    {
      "name": "Object_0",
      "primitives": [
        {
          "attributes": {
            "NORMAL": 1,
            "POSITION": 0,
            "TEXCOORD_0": 2,
            "TEXCOORD_1": 3,
            "TEXCOORD_2": 4
          },
          "indices": 5,
          "material": 0,
          "mode": 4
        }
      ]
    },
    {
      "name": "Object_1",
      "primitives": [
        {
          "attributes": {
            "NORMAL": 7,
            "POSITION": 6,
            "TEXCOORD_0": 8,
            "TEXCOORD_1": 9,
            "TEXCOORD_2": 10
          },
          "indices": 11,
          "material": 0,
          "mode": 4
        }
      ]
    },
    {
      "name": "Object_2",
      "primitives": [
        {
          "attributes": {
            "NORMAL": 13,
            "POSITION": 12,
            "TEXCOORD_0": 14,
            "TEXCOORD_1": 15,
            "TEXCOORD_2": 16
          },
          "indices": 17,
          "material": 0,
          "mode": 4
        }
      ]
    },
    {
      "name": "Object_3",
      "primitives": [
        {
          "attributes": {
            "NORMAL": 19,
            "POSITION": 18,
            "TEXCOORD_0": 20,
            "TEXCOORD_1": 21,
            "TEXCOORD_2": 22
          },
          "indices": 23,
          "material": 0,
          "mode": 4
        }
      ]
    },
    {
      "name": "Object_4",
      "primitives": [
        {
          "attributes": {
            "NORMAL": 25,
            "POSITION": 24,
            "TEXCOORD_0": 26,
            "TEXCOORD_1": 27,
            "TEXCOORD_2": 28
          },
          "indices": 29,
          "material": 0,
          "mode": 4
        }
      ]
    },
    {
      "name": "Object_5",
      "primitives": [
        {
          "attributes": {
            "NORMAL": 31,
            "POSITION": 30,
            "TEXCOORD_0": 32,
            "TEXCOORD_1": 33,
            "TEXCOORD_2": 34
          },
          "indices": 35,
          "material": 0,
          "mode": 4
        }
      ]
    },
    {
      "name": "Object_6",
      "primitives": [
        {
          "attributes": {
            "NORMAL": 37,
            "POSITION": 36,
            "TEXCOORD_0": 38,
            "TEXCOORD_1": 39,
            "TEXCOORD_2": 40
          },
          "indices": 41,
          "material": 0,
          "mode": 4
        }
      ]
    },
    {
      "name": "Object_7",
      "primitives": [
        {
          "attributes": {
            "NORMAL": 43,
            "POSITION": 42,
            "TEXCOORD_0": 44,
            "TEXCOORD_1": 45,
            "TEXCOORD_2": 46
          },
          "indices": 47,
          "material": 0,
          "mode": 4
        }
      ]
    },
    {
      "name": "Object_8",
      "primitives": [
        {
          "attributes": {
            "NORMAL": 49,
            "POSITION": 48,
            "TEXCOORD_0": 50,
            "TEXCOORD_1": 51,
            "TEXCOORD_2": 52
          },
          "indices": 53,
          "material": 0,
          "mode": 4
        }
      ]
    },
    {
      "name": "Object_9",
      "primitives": [
        {
          "attributes": {
            "NORMAL": 55,
            "POSITION": 54,
            "TEXCOORD_0": 56,
            "TEXCOORD_1": 57,
            "TEXCOORD_2": 58
          },
          "indices": 59,
          "material": 0,
          "mode": 4
        }
      ]
    }
  ],
  "nodes": [
    {
      "children": [
        1
      ],
      "matrix": [
        1.0,
        0.0,
        0.0,
        0.0,
        0.0,
        2.220446049250313e-16,
        -1.0,
        0.0,
        0.0,
        1.0,
        2.220446049250313e-16,
        0.0,
        0.0,
        0.0,
        0.0,
        1.0
      ],
      "name": "Sketchfab_model"
    },
    {
      "children": [
        2
      ],
      "name": "root"
    },
    {
      "children": [
        3
      ],
      "matrix": [
        1.0,
        0.0,
        0.0,
        0.0,
        0.0,
        2.220446049250313e-16,
        1.0,
        0.0,
        0.0,
        -1.0,
        2.220446049250313e-16,
        0.0,
        0.0,
        0.0,
        0.0,
        1.0
      ],
      "name": "GLTF_SceneRootNode"
    },
    {
      "children": [
        4,
        5,
        6,
        7,
        8,
        9,
        10,
        11,
        12,
        13
      ],
      "matrix": [
        0.0009999871253967285,
        0.0,
        0.0,
        0.0,
        0.0,
        -1.6858522643563344e-10,
        0.0009999871253967142,
        0.0,
        0.0,
        -0.0009999871253967142,
        -1.6858522643563344e-10,
        0.0,
        0.0,
        1.225621223449707,
        0.0,
        1.0
      ],
      "name": "MontBlanc_VandeHei_1M.001_0"
    },
    {
      "mesh": 0,
      "name": "Object_4"
    },
    {
      "mesh": 1,
      "name": "Object_5"
    },
    {
      "mesh": 2,
      "name": "Object_6"
    },
    {
      "mesh": 3,
      "name": "Object_7"
    },
    {
      "mesh": 4,
      "name": "Object_8"
    },
    {
      "mesh": 5,
      "name": "Object_9"
    },
    {
      "mesh": 6,
      "name": "Object_10"
    },
    {
      "mesh": 7,
      "name": "Object_11"
    },
    {
      "mesh": 8,
      "name": "Object_12"
    },
    {
      "mesh": 9,
      "name": "Object_13"
    }
  ],
  "samplers": [
    {
      "magFilter": 9729,
      "minFilter": 9987,
      "wrapS": 10497,
      "wrapT": 10497
    }
  ],
  "scene": 0,
  "scenes": [
    {
      "name": "Sketchfab_Scene",
      "nodes": [
        0
      ]
    }
  ],
  "textures": [
    {
      "sampler": 0,
      "source": 0
    },
    {
      "sampler": 0,
      "source": 1
    }
  ]
}
